<svg width="512" height="512" viewBox="0 0 512 512" fill="none" xmlns="http://www.w3.org/2000/svg">
<g clip-path="url(#clip0)">
<path d="M0 8.1037C0 2.58086 4.47715 -1.8963 10 -1.8963H502C507.523 -1.8963 512 2.58085 512 8.1037V502C512 507.523 507.523 512 502 512H10C4.47715 512 0 507.523 0 502V8.1037Z" fill="url(#paint0_linear)"/>
<g clip-path="url(#clip1)">
<path d="M452.267 312.071V355.036C452.267 369.628 411.889 381.788 362.257 381.788C312.626 381.788 273.09 370.033 273.09 355.442V350.578L272.248 316.53H272.669C279.398 329.095 316.412 338.823 360.995 338.823C405.579 338.823 451.425 326.664 451.425 312.072H452.267V312.071Z" fill="#E2A63B"/>
<path d="M359.734 152.372V194.931H358.892C358.892 209.928 317.253 221.683 268.042 221.683C249.115 222.088 229.767 220.061 211.26 215.603L210.419 216.413C201.165 209.118 190.651 203.443 179.294 199.795V198.985L178.033 153.993C180.977 167.774 220.093 178.718 267.622 178.718C315.15 178.718 358.892 166.963 358.892 152.372H359.734Z" fill="#F4B844"/>
<path d="M359.734 153.182C359.734 167.774 318.094 179.529 268.463 179.529C218.832 179.529 181.398 168.585 178.454 154.804C178.454 154.399 178.034 153.588 178.034 153.182C178.034 138.591 218.411 126.431 268.464 126.431C318.514 126.026 359.734 138.185 359.734 153.182Z" fill="#FEDB41"/>
<path d="M272.669 316.529L272.248 307.612L271.407 271.133C274.351 284.914 313.468 295.858 360.996 295.858C408.524 295.858 450.585 284.103 451.846 269.917H452.267V312.071H451.425C451.425 326.662 410.626 338.823 360.995 338.823C311.365 338.822 279.399 329.095 272.669 316.529Z" fill="#F4B844"/>
<path d="M212.522 343.686C223.879 333.553 232.712 320.582 237.338 306.396H239.441C248.694 307.207 257.947 307.612 268.042 307.612H272.248V316.529L273.089 350.577H268.462C249.955 350.982 231.87 348.956 213.784 344.903L212.522 343.686Z" fill="#E2A63B"/>
<path d="M272.669 267.89V269.917L273.51 307.612H269.303C258.789 307.612 249.114 307.207 239.862 306.396H237.759C240.703 297.885 241.964 288.968 241.964 280.05C241.964 273.97 241.123 268.296 239.862 262.621H241.964C250.797 263.432 259.63 263.837 269.303 263.837L273.089 265.864C272.669 266.674 272.669 267.484 272.669 267.89Z" fill="#F4B844"/>
<path d="M211.261 215.603C229.768 220.061 249.115 222.088 268.043 221.683C317.253 221.683 358.893 209.928 358.893 194.931H359.734V242.76C313.889 242.76 276.455 253.298 271.828 266.674L268.043 264.647C258.789 264.647 249.957 264.242 241.545 263.431H239.442C235.657 244.786 225.562 228.168 210.42 216.008L211.261 215.603Z" fill="#E2A63B"/>
<path d="M240.283 263.431C236.077 244.786 225.561 227.763 210.42 215.198C201.166 207.091 190.23 201.417 178.454 198.174C170.042 195.337 160.788 194.121 151.956 194.121C101.904 193.714 61.1049 232.221 60.6847 280.454C60.2644 328.688 100.221 368.005 150.274 368.41C173.407 368.41 195.278 360.304 212.523 345.306C224.3 334.767 233.132 321.392 237.759 306.8C240.703 298.288 241.964 289.776 241.964 280.859C241.965 275.186 240.283 269.106 240.283 263.431Z" fill="#FEDB41"/>
<path d="M451.846 269.106V269.917C450.585 284.103 409.786 295.858 360.996 295.858C312.206 295.858 274.351 284.914 271.407 271.133V269.107C271.407 268.296 271.407 267.485 271.827 266.674C276.454 253.298 313.888 242.76 359.734 242.76H360.995C410.627 242.76 451.846 254.514 451.846 269.106Z" fill="#FEDB41"/>
<path d="M188.611 240.068H170.173C173.507 244.287 175.616 249.443 176.501 255.537H192.205L188.611 267.88H176.736C175.798 277.151 172.126 284.13 165.72 288.818C159.314 293.505 150.408 295.849 139.001 295.849L177.517 340.537V341.474H159.783L118.376 293.271L118.298 283.505H137.751C144.262 283.453 149.548 282.047 153.611 279.287C157.673 276.474 160.251 272.672 161.345 267.88H116.111L119.705 255.537H161.189C158.689 245.641 151.033 240.484 138.22 240.068H116.267L119.939 227.724H192.205L188.611 240.068Z" fill="#1A078F"/>
</g>
</g>
<defs>
<linearGradient id="paint0_linear" x1="0" y1="-1.8963" x2="513.893" y2="510.1" gradientUnits="userSpaceOnUse">
<stop stop-color="#4203F4"/>
<stop offset="0.6264" stop-color="#31188D"/>
</linearGradient>
<clipPath id="clip0">
<rect width="512" height="512" rx="20" fill="white"/>
</clipPath>
<clipPath id="clip1">
<rect width="391.585" height="377.363" fill="white" transform="translate(60.6814 65.4222)"/>
</clipPath>
</defs>
</svg>
